<svg width="117" height="116" viewBox="0 0 117 116" fill="none" xmlns="http://www.w3.org/2000/svg">
<path d="M109.535 65.1852C111.172 65.0708 112.228 63.8909 112.37 62.2955C112.543 60.3427 111.209 58.772 108.795 58.5573C106.382 58.3427 104.792 59.6459 104.617 61.6061C104.47 63.2641 105.401 64.5688 106.872 64.9483L106.977 63.7991C106.029 63.5179 105.571 62.6602 105.656 61.7059C105.771 60.4126 106.849 59.5243 108.695 59.6885C110.526 59.8513 111.445 60.9135 111.33 62.2142C111.244 63.1758 110.631 63.9346 109.638 64.0357L109.535 65.1852Z" fill="#F5F5F5"/>
<path d="M111.489 69.2059L104.232 67.0313L103.92 68.073L109.175 69.6477L109.154 69.7151L103.269 70.2838L103.01 71.1483L107.609 74.859L107.589 74.9264L102.338 73.3527L102.025 74.3945L109.282 76.5691L109.68 75.2404L104.732 71.2396L104.757 71.1545L111.091 70.5347L111.489 69.2059Z" fill="#F5F5F5"/>
<path d="M101.341 84.3961C103.476 85.5428 105.456 84.9605 106.384 83.2335C107.315 81.4999 106.706 79.5308 104.572 78.384C102.44 77.2391 100.459 77.8164 99.5276 79.5499C98.5997 81.277 99.2071 83.2494 101.341 84.3961ZM101.877 83.399C100.251 82.5254 99.8303 81.1907 100.447 80.0436C101.065 78.8934 102.408 78.5108 104.034 79.3844C105.66 80.258 106.083 81.5895 105.465 82.7398C104.848 83.8868 103.503 84.2726 101.877 83.399Z" fill="#F5F5F5"/>
<path d="M102.243 88.2547L100.772 90.1007L95.6165 85.9935L94.9066 86.8846L100.062 90.9918L98.5897 92.8406L99.3593 93.4537L103.012 88.8678L102.243 88.2547Z" fill="#F5F5F5"/>
<path d="M91.8609 90.5091L91.0182 91.2814L92.8176 93.2449L91.6722 94.2946C90.3768 95.4817 90.4531 96.8517 91.3978 97.8826C92.34 98.9107 93.6902 99.1084 94.9883 97.9188L96.9792 96.0944L91.8609 90.5091ZM93.4724 93.9595L95.4742 96.1439L94.416 97.1136C93.5815 97.8783 92.8258 97.738 92.246 97.1053C91.6662 96.4726 91.5797 95.6939 92.4033 94.9391L93.4724 93.9595Z" fill="#F5F5F5"/>
<path d="M86.5907 95.2276L82.6036 97.8895L83.1499 98.7079L86.1864 96.6807L87.4742 98.6096L84.6808 100.475L85.225 101.29L88.0185 99.4249L89.3001 101.345L86.3006 103.347L86.8469 104.166L90.7971 101.528L86.5907 95.2276Z" fill="#F5F5F5"/>
<path d="M83.808 104.922L81.6628 105.905L78.9151 99.9135L77.8795 100.388L80.6272 106.38L78.4786 107.366L78.8888 108.26L84.2182 105.816L83.808 104.922Z" fill="#F5F5F5"/>
<path d="M73.605 106.934L74.393 109.886L75.5009 109.591L73.5472 102.271L70.8059 103.003C69.1762 103.438 68.4857 104.595 68.8394 105.905C69.185 107.214 70.342 107.805 71.9717 107.37L73.605 106.934ZM73.357 106.005L71.7237 106.441C70.7766 106.694 70.1098 106.29 69.9333 105.629C69.752 104.95 70.1069 104.185 71.054 103.932L72.6873 103.496L73.357 106.005Z" fill="#F5F5F5"/>
<path d="M56.3554 108.544C56.4022 110.966 57.8803 112.406 59.8405 112.369C61.808 112.331 63.2258 110.834 63.179 108.412C63.1323 105.993 61.6578 104.549 59.6903 104.587C57.7301 104.625 56.3087 106.121 56.3554 108.544ZM57.4872 108.522C57.4515 106.676 58.4086 105.655 59.7104 105.63C61.016 105.605 62.008 106.588 62.0436 108.434C62.0792 110.279 61.1259 111.3 59.8204 111.326C58.5185 111.351 57.5228 110.367 57.4872 108.522Z" fill="#F5F5F5"/>
<path d="M53.3272 111.209L50.998 110.829L52.0592 104.323L50.9347 104.14L49.8735 110.646L47.5406 110.265L47.3822 111.237L53.1688 112.18L53.3272 111.209Z" fill="#F5F5F5"/>
<path d="M43.9397 102.368C42.4764 101.869 41.1029 102.377 40.7002 103.569C40.3872 104.474 40.7146 105.313 41.6167 105.785L41.5976 105.841C40.7827 105.778 40.0953 106.2 39.824 107.006C39.4609 108.059 40.0185 109.254 41.3979 109.724C42.7142 110.174 44.0426 109.74 44.4755 108.586L43.4288 108.229C43.1796 108.878 42.4238 109.066 41.7201 108.826C40.9884 108.576 40.6606 107.968 40.8899 107.307C41.123 106.613 41.8349 106.348 42.6296 106.619L43.2352 106.826L43.5363 105.944L42.9307 105.737C41.9365 105.398 41.5344 104.698 41.7805 103.976C42.0183 103.28 42.7852 103.014 43.6289 103.302C44.4061 103.567 44.8755 104.173 44.7001 104.824L45.7993 105.199C46.1529 104.015 45.3891 102.863 43.9397 102.368Z" fill="#F5F5F5"/>
<path d="M35.7157 104.136L34.1908 106.784L35.1844 107.356L38.9654 100.791L36.5068 99.375C35.0451 98.5332 33.7395 98.8655 33.0652 100.044C32.3863 101.215 32.7891 102.45 34.2508 103.292L35.7157 104.136ZM28.8344 103.699L29.8249 104.269L33.6058 97.7042L32.6153 97.1338L28.8344 103.699ZM36.1957 103.302L34.7308 102.459C33.8813 101.969 33.6939 101.213 34.0355 100.62C34.3862 100.011 35.1773 99.7192 36.0268 100.208L37.4917 101.052L36.1957 103.302Z" fill="#F5F5F5"/>
<path d="M30.1733 95.4599L27.9833 93.5532C26.6553 92.397 25.4798 92.536 24.7171 93.412C23.9471 94.2964 24.1317 95.335 24.6713 95.8588L24.6227 95.9146C23.9817 95.5919 23.2327 95.5676 22.6109 96.2818C21.875 97.1272 21.89 98.2929 23.1064 99.3519L25.1989 101.174L30.1733 95.4599ZM28.6676 95.4487L27.0742 97.2788L25.7992 96.1688C25.1073 95.5664 25.0635 94.7436 25.5372 94.1995C25.9549 93.7197 26.5947 93.644 27.4233 94.3654L28.6676 95.4487ZM26.4888 97.9512L24.9756 99.6893L23.7982 98.6643C23.1147 98.0692 23.1016 97.4251 23.5146 96.9509C23.9955 96.3985 24.7535 96.4404 25.3338 96.9456L26.4888 97.9512Z" fill="#F5F5F5"/>
<path d="M19.6298 84.2083L18.8219 83.0716L17.2335 88.0583L12.7135 87.5541L13.5214 88.6908L17.7882 89.1707L18.0047 89.4752L15.3966 91.329L16.0588 92.2606L22.2337 87.8716L21.5715 86.94L18.8036 88.9073L18.3365 88.25L19.6298 84.2083Z" fill="#F5F5F5"/>
<path d="M11.539 77.2411C9.35193 78.2837 8.65029 80.2246 9.49393 81.9943C10.3408 83.7707 12.2888 84.4443 14.4759 83.4017C16.6597 82.3607 17.3662 80.4216 16.5194 78.6452C15.6758 76.8755 13.7261 76.1985 11.539 77.2411ZM12.0261 78.2629C13.6923 77.4686 15.0175 77.9187 15.5778 79.0941C16.1397 80.2728 15.6534 81.5823 13.9872 82.3766C12.321 83.1709 10.9975 82.7241 10.4356 81.5454C9.87525 80.37 10.3599 79.0572 12.0261 78.2629Z" fill="#F5F5F5"/>
<path d="M14.1614 73.7042L13.8708 72.5987L10.676 73.4385L9.71586 69.7858L12.9106 68.9461L12.6191 67.837L5.29225 69.763L5.58377 70.872L8.76781 70.0351L9.72797 73.6877L6.54393 74.5247L6.83452 75.6302L14.1614 73.7042Z" fill="#F5F5F5"/>
<path d="M6.49876 59.5153C4.90187 59.8921 4.05035 61.2269 4.16764 62.8243C4.31121 64.7795 5.88172 66.1145 8.29813 65.9371C10.7145 65.7596 12.0738 64.217 11.9297 62.2544C11.8078 60.5942 10.6783 59.4569 9.16603 59.3194L9.24686 60.4707C10.2278 60.5953 10.8186 61.3679 10.8888 62.3234C10.9838 63.6183 10.0632 64.6688 8.21497 64.8045C6.38145 64.9391 5.30279 64.0391 5.20717 62.7368C5.13648 61.774 5.61946 60.9262 6.58328 60.6663L6.49876 59.5153Z" fill="#F5F5F5"/>
<path d="M4.96321 56.1077L5.21746 53.7615L11.7709 54.4716L11.8936 53.3389L5.3402 52.6288L5.59485 50.2788L4.61661 50.1728L3.98498 56.0017L4.96321 56.1077Z" fill="#F5F5F5"/>
<path d="M12.6489 48.088L10.9094 46.8725L11.7159 44.0253L13.8334 43.9061L14.1641 42.7387L6.1321 43.2972L5.77222 44.5678L12.3183 49.2554L12.6489 48.088ZM10.0748 46.2901L7.26858 44.3342L7.28471 44.2773L10.6998 44.0835L10.0748 46.2901Z" fill="#F5F5F5"/>
<path d="M14.5937 41.2997L15.0932 40.2716L12.122 38.828L13.7725 35.431L16.7437 36.8745L17.2448 35.8431L10.4307 32.5324L9.92962 33.5639L12.8908 35.0026L11.2403 38.3996L8.27913 36.9609L7.77962 37.989L14.5937 41.2997Z" fill="#F5F5F5"/>
<path d="M12.9284 29.9927L14.3167 28.0842L19.6473 31.9618L20.3175 31.0405L14.9869 27.1628L16.3773 25.2514L15.5816 24.6725L12.1327 29.4139L12.9284 29.9927Z" fill="#F5F5F5"/>
<path d="M17.7885 21.8754L23.0472 27.3287L23.8034 26.5995L22.7186 19.9271L22.7692 19.8783L26.6259 23.8777L27.4487 23.0843L22.1901 17.631L21.4285 18.3654L22.5158 25.0457L22.4652 25.0945L18.6033 21.0897L17.7885 21.8754Z" fill="#F5F5F5"/>
<path d="M29.4236 21.2927L30.3788 20.665L28.5649 17.9043L31.7213 15.8303L33.5352 18.591L34.4936 17.9613L30.3334 11.63L29.3751 12.2597L31.183 15.0111L28.0266 17.0851L26.2187 14.3337L25.2635 14.9613L29.4236 21.2927Z" fill="#F5F5F5"/>
<path d="M37.3485 16.3577L37.2001 14.2408L39.9213 13.0778L41.3453 14.6496L42.461 14.1728L36.9769 8.27792L35.7626 8.79689L36.2328 16.8345L37.3485 16.3577ZM37.1283 13.2256L36.885 9.81366L36.9394 9.7904L39.2372 12.3243L37.1283 13.2256Z" fill="#F5F5F5"/>
<path d="M51.2294 12.0328L52.604 11.7978L48.7997 8.20384L51.2142 4.3497L49.8396 4.58473L47.5567 8.22122L47.1884 8.28419L46.6492 5.13024L45.5225 5.32288L46.7993 12.7903L47.926 12.5976L47.3537 9.25043L48.1485 9.11452L51.2294 12.0328Z" fill="#F5F5F5"/>
<path d="M61.5009 7.76232C61.5289 5.33958 60.096 3.85434 58.1356 3.83164C56.1678 3.80885 54.7045 5.26054 54.6765 7.68329C54.6485 10.1023 56.0777 11.5912 58.0455 11.614C60.0058 11.6367 61.4728 10.1851 61.5009 7.76232ZM60.369 7.74922C60.3476 9.59494 59.3595 10.586 58.0575 10.5709C56.7518 10.5558 55.7906 9.54217 55.812 7.69644C55.8334 5.85072 56.8178 4.85959 58.1235 4.87471C59.4255 4.88979 60.3904 5.90349 60.369 7.74922Z" fill="#F5F5F5"/>
<path d="M63.5635 11.6505L64.6846 11.8733L65.3283 8.6333L69.0327 9.36924L68.389 12.6092L69.5137 12.8327L70.99 5.40213L69.8652 5.17868L69.2237 8.40777L65.5193 7.67182L66.1608 4.44273L65.0397 4.22L63.5635 11.6505Z" fill="#F5F5F5"/>
<path d="M79.6705 10.9792C80.0334 9.37903 79.2083 8.02779 77.7217 7.43152C75.9021 6.70168 74.013 7.52624 73.111 9.77501C72.2091 12.0238 72.9979 13.9224 74.8244 14.655C76.3693 15.2747 77.8872 14.7596 78.6749 13.4614L77.6051 13.0283C77.0624 13.8548 76.1088 14.0463 75.2196 13.6896C74.0145 13.2063 73.4751 11.9178 74.165 10.1978C74.8494 8.49145 76.1317 7.91772 77.3437 8.40383C78.2397 8.76324 78.7892 9.5695 78.5994 10.5495L79.6705 10.9792Z" fill="#F5F5F5"/>
<path d="M83.1748 10.9584L85.1752 12.2106L81.6775 17.7979L82.6432 18.4025L86.1409 12.8152L88.1444 14.0694L88.6665 13.2353L83.6969 10.1243L83.1748 10.9584Z" fill="#F5F5F5"/>
<path d="M87.1149 21.4263L88.9673 20.3909L91.1779 22.3583L90.3617 24.3159L91.268 25.1225L94.268 17.6509L93.2816 16.773L86.2085 20.6197L87.1149 21.4263ZM89.8554 19.8938L92.8392 18.2214L92.8834 18.2608L91.5686 21.4186L89.8554 19.8938Z" fill="#F5F5F5"/>
<path d="M92.4031 26.1784L93.112 27.075L95.7032 25.0263L98.0457 27.9889L95.4545 30.0376L96.1657 30.9372L102.108 26.2385L101.397 25.339L98.8146 27.3809L96.4722 24.4183L99.0547 22.3764L98.3458 21.4798L92.4031 26.1784Z" fill="#F5F5F5"/>
<path d="M103.318 29.588L104.435 31.667L98.6284 34.7868L99.1676 35.7904L104.974 32.6707L106.093 34.7529L106.96 34.2872L104.185 29.1224L103.318 29.588Z" fill="#F5F5F5"/>
<path d="M108.499 37.4625L101.302 39.8282L101.63 40.8263L108.111 42.7494L108.133 42.8162L102.855 44.5512L103.212 45.6371L110.409 43.2714L110.078 42.2663L103.589 40.3419L103.567 40.2752L108.853 38.5378L108.499 37.4625Z" fill="#F5F5F5"/>
<path d="M103.937 48.1156L104.087 49.2488L107.362 48.8173L107.855 52.5617L104.58 52.9932L104.73 54.1301L112.241 53.1405L112.091 52.0036L108.827 52.4337L108.334 48.6892L111.597 48.2592L111.448 47.126L103.937 48.1156Z" fill="#F5F5F5"/>
</svg>
