<svg width="26" height="26" viewBox="0 0 26 26">
  <path d="M19.5502 22.0729L19.5501 22.0728L19.5443 22.0788C19.2537 22.3769 18.8537 22.4981 18.404 22.5C16.1785 22.4308 14.0368 21.3343 12.2142 20.151C9.23051 17.9787 6.52306 15.307 4.82935 12.1049C4.15299 10.7044 3.43672 9.05575 3.5044 7.66105L3.50485 7.65181L3.50495 7.64257C3.51083 7.13138 3.64922 6.72318 3.915 6.47994L3.92311 6.47251L3.93088 6.46474L6.7353 3.66174C6.93611 3.49578 7.06815 3.49093 7.13965 3.5055C7.22476 3.52285 7.35482 3.59487 7.49248 3.80127L9.74376 8.07028C9.87825 8.36724 9.80521 8.68773 9.58209 8.91708L8.54542 9.95322L8.51795 9.98068L8.49505 10.0121C8.38437 10.1637 8.29515 10.3628 8.29291 10.5988L8.29228 10.6648L8.30878 10.7286C8.74401 12.4134 10.039 13.9159 11.1262 14.9134C11.2883 15.0622 11.4609 15.2277 11.6412 15.4007C12.0155 15.7598 12.4232 16.151 12.8405 16.4905C13.4695 17.0023 14.1962 17.4653 15.0457 17.6481C15.1662 17.6804 15.3176 17.7073 15.4766 17.7001C15.6413 17.6926 15.862 17.6453 16.0449 17.4752L16.0531 17.4676L16.061 17.4596L17.242 16.2585C17.57 16.0226 17.9319 15.9885 18.1248 16.1005L18.2412 16.1681H18.2605L22.2283 18.5106C22.5613 18.7227 22.5639 19.0729 22.3661 19.2795L19.5502 22.0729Z"/>
</svg>
