<svg width="1098" height="119" viewBox="0 0 1098 119" fill="none" xmlns="http://www.w3.org/2000/svg">
  <path d="M569.689 1H669.523L648.601 45.3157C639.68 62.1835 613.069 74.7574 578.458 74.7574H504.93L484.47 117.847H428.17L462.781 44.856H592.611L598.916 31.6684H469.241C477.548 14.1876 504.621 1 540 1H569.689ZM883.184 1H783.353H753.509C718.129 1 691.057 14.1876 682.75 31.6684H812.425L806.117 44.856H676.445L662.292 74.7574H718.439L624.296 117.847H720.129L785.814 87.6382L771.509 117.847C806.117 117.847 832.731 105.273 841.652 88.4051L862.264 44.856L868.572 31.6684L872.109 24.0013L883.184 1ZM142.673 1H242.351L218.508 51.6029L187.128 58.1965L211.278 66.4769L201.126 87.945C192.512 105.119 165.592 118 130.674 118H1L21.4588 74.911L71.4516 88.0983H144.98L151.287 74.911H77.7586L29.3038 58.1965L91.7564 45.0092H165.285L171.591 31.8219H98.0633L35.7644 45.0092C36.226 43.9358 37.764 40.7157 42.071 31.8219C50.3776 14.3408 77.4508 1.15356 112.83 1.15356L142.673 1ZM855.495 117.847L890.106 44.856H946.405L926.102 87.945H999.63L1026.24 31.6684H896.569C907.644 10.5071 938.101 1 967.325 1H1097L1055.77 87.945H1083.31C1074.69 104.966 1047.78 117.847 1012.86 117.847H855.495ZM214.509 117.847L249.119 45.0092H378.947L385.255 31.8219H255.426C263.732 14.3408 290.805 1.15356 326.184 1.15356H455.859L421.248 74.1441C421.248 74.1441 423.248 70.0038 414.944 87.3316C406.637 104.812 379.564 117.847 344.336 118L364.794 74.911H291.267L270.808 118H214.509V117.847Z" stroke="#333333"/>
</svg>
