<?xml version="1.0" standalone="no"?>
<!DOCTYPE svg PUBLIC "-//W3C//DTD SVG 20010904//EN"
 "http://www.w3.org/TR/2001/REC-SVG-20010904/DTD/svg10.dtd">
<svg version="1.0" xmlns="http://www.w3.org/2000/svg"
 width="1048.000000pt" height="1048.000000pt" viewBox="0 0 1048.000000 1048.000000"
 preserveAspectRatio="xMidYMid meet">
<metadata>
Created by potrace 1.14, written by Peter Selinger 2001-2017
</metadata>
<g transform="translate(0.000000,1048.000000) scale(0.100000,-0.100000)"
fill="#000000" stroke="none">
<path d="M4470 8501 c-121 -46 -161 -76 -223 -169 -31 -45 -73 -117 -93 -160
-39 -81 -39 -82 -32 -264 1 -42 0 -80 -4 -83 -11 -12 -62 22 -133 88 -82 78
-201 146 -305 177 -41 12 -113 34 -160 48 -92 28 -116 30 -200 13 -30 -7 -79
-12 -109 -12 -53 0 -111 -20 -111 -39 0 -15 -26 -12 -39 4 -10 11 -17 11 -51
0 -21 -8 -72 -22 -112 -33 -82 -21 -101 -15 -113 39 -10 45 -28 53 -106 51
-69 -2 -131 -20 -144 -42 -4 -5 -13 -8 -20 -5 -7 2 -23 -3 -36 -12 -13 -9 -28
-17 -34 -18 -96 -18 -213 -52 -262 -77 -52 -26 -63 -36 -63 -57 0 -16 -14 -40
-39 -65 -72 -72 -111 -122 -128 -161 -14 -34 -22 -141 -23 -301 0 -6 -28 -24
-62 -41 -110 -52 -183 -131 -208 -222 -9 -35 -9 -49 3 -74 9 -17 22 -51 31
-76 9 -25 34 -72 55 -105 33 -50 40 -71 42 -115 1 -30 8 -67 16 -82 7 -15 13
-38 13 -52 0 -24 44 -118 84 -179 15 -21 22 -24 41 -17 25 9 35 -2 35 -40 0
-10 7 -21 15 -24 12 -4 14 -10 5 -25 -5 -11 -10 -37 -10 -58 0 -22 -5 -44 -12
-51 -7 -7 -11 -35 -10 -64 0 -29 -5 -75 -13 -103 -8 -27 -21 -77 -30 -110 -10
-33 -19 -111 -21 -176 -3 -95 0 -129 17 -190 28 -99 75 -180 149 -259 81 -86
95 -107 82 -123 -5 -6 -13 -28 -16 -47 -9 -43 -21 -78 -57 -155 -40 -88 -94
-249 -144 -425 -41 -149 -49 -186 -60 -275 -2 -22 -7 -51 -10 -65 -3 -14 -7
-35 -9 -47 -3 -11 -18 -40 -35 -64 -17 -23 -31 -48 -31 -55 0 -7 -18 -19 -41
-25 -24 -8 -48 -24 -61 -42 -11 -16 -54 -54 -95 -84 -41 -30 -77 -61 -79 -68
-3 -7 -26 -21 -52 -30 -102 -39 -186 -117 -284 -263 l-59 -87 -65 -1 c-89 -2
-119 -24 -201 -144 -21 -30 -42 -60 -48 -66 -5 -6 -28 -33 -50 -59 -47 -55
-108 -119 -188 -193 -73 -68 -108 -128 -116 -200 l-6 -57 -62 -34 c-46 -25
-65 -43 -77 -70 -32 -72 -1 -119 183 -278 36 -32 75 -67 87 -78 11 -11 45 -40
75 -65 29 -25 71 -61 94 -81 81 -72 247 -200 286 -220 22 -11 37 -24 34 -29
-3 -5 0 -12 6 -16 7 -4 9 -3 5 4 -3 6 -2 13 3 16 5 3 12 -1 15 -10 5 -13 9
-14 20 -5 11 9 18 8 30 -4 10 -10 16 -12 16 -5 0 7 6 10 13 7 6 -2 18 2 25 9
7 8 10 14 7 14 -3 0 4 9 15 20 11 11 21 35 22 53 3 56 4 62 11 75 5 6 16 12
25 12 50 0 111 114 96 176 -4 16 -28 59 -53 97 -25 38 -51 78 -58 90 -6 11
-19 24 -27 29 -9 5 -16 18 -16 29 0 11 -7 27 -15 35 -17 17 -20 61 -5 84 6 10
3 24 -10 45 -15 25 -18 47 -16 115 2 83 2 84 31 94 51 19 99 48 119 72 11 13
61 44 111 68 128 63 328 182 460 276 133 94 332 214 384 231 66 21 129 58 165
96 45 47 112 183 121 243 7 55 35 82 77 75 34 -6 98 21 98 41 0 30 106 279
130 307 6 7 28 38 49 69 l37 57 57 -59 c54 -55 59 -58 86 -49 16 6 66 46 112
89 46 44 89 80 96 80 21 0 23 -17 7 -56 -9 -22 -18 -59 -19 -84 -2 -25 -4 -48
-4 -52 -1 -5 -9 -8 -20 -8 -27 0 -35 -15 -60 -120 -13 -52 -36 -122 -51 -155
-15 -33 -42 -91 -60 -129 -17 -37 -34 -80 -36 -95 -3 -14 -7 -34 -10 -44 -3
-11 -6 -80 -5 -155 0 -97 -3 -142 -13 -157 -23 -35 -27 -71 -11 -107 20 -49 3
-64 -37 -35 l-30 22 -19 -24 c-25 -31 -47 -110 -54 -196 -3 -38 -7 -81 -9 -95
-12 -81 -18 -115 -21 -121 -3 -5 -24 -96 -41 -179 -12 -58 -43 -159 -57 -187
-9 -16 -18 -43 -21 -59 -2 -16 -5 -29 -6 -29 -4 0 -10 -45 -13 -95 -4 -59 13
-95 60 -133 13 -10 23 -25 23 -34 0 -23 -49 -131 -83 -183 -28 -42 -35 -81
-24 -141 4 -23 27 -49 43 -49 8 0 14 -5 14 -11 0 -5 4 -8 9 -4 5 3 12 1 16 -4
3 -5 15 -8 26 -6 15 3 19 0 15 -11 -4 -11 -2 -12 12 -5 11 6 24 6 36 -1 9 -5
20 -7 23 -4 3 3 12 -1 20 -9 8 -8 19 -15 26 -15 6 0 2 6 -8 14 -19 13 -18 14
8 13 15 -1 27 -6 27 -11 0 -5 7 -3 15 4 11 9 15 9 15 1 0 -7 5 -9 12 -5 15 9
69 13 63 5 -2 -4 8 -11 21 -18 13 -6 22 -8 19 -3 -3 4 2 13 10 20 12 10 15 9
16 -6 1 -11 0 -23 -1 -29 -1 -5 2 -6 7 -2 4 5 8 16 8 25 0 11 9 17 22 18 12 1
21 -2 19 -5 -3 -3 7 -12 21 -18 21 -10 23 -10 12 3 -6 8 -9 17 -5 21 3 4 12
-2 20 -12 13 -17 14 -17 23 -1 9 16 11 16 16 2 4 -9 12 -16 19 -16 10 0 10 2
-1 9 -11 7 -11 10 0 17 7 4 14 3 17 -4 2 -7 8 -12 13 -12 6 0 8 3 6 8 -3 4 15
7 39 7 24 0 44 -3 44 -7 0 -5 5 -8 11 -8 5 0 8 4 5 8 -3 5 5 7 17 6 12 -1 22
-3 22 -4 0 -1 8 -3 18 -5 9 -2 15 1 11 6 -3 5 -10 6 -16 3 -6 -4 -8 -2 -5 4 4
5 16 8 27 5 11 -3 18 -8 16 -12 -3 -4 4 -7 14 -8 11 -1 22 2 25 8 3 5 -1 6 -9
3 -9 -3 -16 -2 -16 4 0 6 13 8 31 5 17 -2 37 1 47 9 11 9 14 10 8 0 -4 -6 -4
-12 1 -13 4 0 16 -2 25 -4 12 -2 15 2 10 13 -5 14 -3 15 10 5 8 -7 18 -10 22
-6 11 11 46 10 39 -1 -4 -6 0 -6 8 1 8 7 24 12 34 12 38 1 150 9 153 11 7 7
28 5 39 -3 9 -6 15 -4 19 6 3 9 13 13 26 9 14 -3 19 -1 14 6 -4 8 -2 10 8 6 8
-3 12 -13 10 -22 -5 -14 -4 -14 6 1 6 9 15 15 21 12 5 -4 9 -1 9 5 0 7 -7 10
-15 7 -8 -4 -17 -2 -20 3 -4 6 2 10 12 10 11 0 24 5 31 12 7 7 12 8 12 4 0 -4
22 11 49 34 42 34 51 48 56 84 6 37 3 50 -21 87 -15 24 -32 47 -38 51 -7 5 1
19 22 41 17 18 32 42 32 52 0 30 -27 110 -46 140 -23 35 -36 41 -146 64 -113
24 -200 52 -289 94 -59 28 -70 38 -94 85 -16 29 -42 72 -60 95 -18 23 -35 51
-39 63 -3 12 -18 26 -31 32 -14 6 -25 18 -25 25 0 8 23 37 50 65 28 28 50 56
50 61 0 6 14 41 31 78 49 106 77 169 129 288 26 61 59 135 73 165 55 120 113
280 183 510 26 85 52 161 58 169 6 8 10 17 9 20 -6 14 64 196 117 307 47 97
59 144 54 222 -5 91 -72 247 -110 256 -12 3 -24 12 -26 19 -3 15 -73 100 -126
154 -18 19 -44 53 -59 76 -14 23 -43 62 -63 87 -20 25 -42 57 -48 73 -6 15
-16 27 -21 27 -18 0 -81 66 -72 76 8 8 20 28 65 109 6 11 24 39 39 62 15 24
27 45 27 48 0 7 10 21 116 170 43 61 81 112 84 115 3 3 17 21 30 40 13 19 53
74 88 122 l65 86 136 1 c75 1 147 2 161 3 60 3 79 -4 126 -46 51 -46 77 -56
150 -56 23 0 55 -5 71 -11 28 -11 117 -13 160 -5 55 11 136 78 191 156 17 25
42 55 55 67 14 13 40 57 58 100 l34 76 125 60 c69 32 134 60 146 61 12 2 43
19 69 39 39 30 51 35 67 26 21 -11 59 -1 104 28 20 12 21 18 12 54 -9 34 -8
42 7 53 15 11 17 23 12 74 -3 34 -2 64 2 66 9 6 71 14 161 21 41 3 86 8 100
10 14 2 66 6 115 10 50 3 104 8 120 10 17 2 64 7 105 10 41 4 89 8 105 9 17 2
62 6 100 10 39 4 88 9 110 11 22 3 74 7 115 10 41 3 95 7 120 9 25 3 81 8 125
11 44 4 96 8 115 10 19 2 71 7 115 10 44 4 82 8 85 10 3 1 50 6 105 10 148 11
193 15 350 31 22 2 72 6 110 9 39 3 91 7 118 10 109 11 145 15 202 20 33 3 76
8 95 10 36 4 112 12 210 20 30 3 70 7 90 10 19 2 62 7 95 10 124 11 161 15
205 20 25 2 70 7 100 10 205 22 286 57 426 187 165 154 424 423 448 465 5 10
20 29 33 43 28 30 111 152 135 198 32 64 39 133 16 176 -18 36 -89 96 -148
126 -112 56 -221 59 -278 7 -13 -12 -52 -78 -86 -147 -128 -257 -222 -411
-346 -564 -68 -83 -191 -186 -274 -228 -67 -34 -172 -75 -208 -82 -13 -2 -50
-11 -83 -19 -56 -14 -92 -20 -190 -32 -22 -3 -65 -10 -95 -15 -30 -5 -89 -12
-130 -15 -41 -3 -95 -7 -120 -9 -25 -3 -76 -8 -115 -11 -38 -4 -86 -8 -105
-10 -19 -2 -64 -6 -100 -9 -36 -3 -90 -8 -120 -11 -30 -3 -77 -7 -105 -10 -27
-2 -79 -7 -115 -10 -36 -3 -81 -8 -100 -10 -19 -2 -66 -7 -105 -10 -38 -3 -88
-8 -110 -10 -22 -2 -71 -7 -110 -10 -38 -3 -83 -7 -100 -10 -16 -2 -61 -7
-100 -10 -122 -11 -204 -19 -315 -30 -14 -1 -61 -6 -105 -10 -44 -4 -91 -9
-105 -10 -14 -2 -61 -6 -105 -10 -44 -3 -91 -8 -105 -10 -14 -2 -56 -7 -95
-10 -73 -6 -119 -11 -195 -20 -25 -2 -71 -7 -102 -10 l-58 -5 -19 43 c-29 64
-80 129 -96 123 -7 -2 -20 6 -29 19 -8 13 -40 37 -71 55 -70 40 -150 50 -215
25 -25 -9 -83 -25 -130 -35 -47 -11 -114 -27 -149 -37 l-64 -18 -40 38 c-22
20 -47 37 -56 37 -15 1 -63 30 -47 30 4 0 3 8 -2 17 -11 19 -3 43 42 118 17
27 32 58 33 69 5 32 52 116 88 159 19 22 35 46 35 53 0 8 9 18 20 24 46 25 81
95 81 165 0 10 4 24 9 30 20 24 17 61 -6 102 -13 23 -24 52 -24 65 0 28 -45
102 -86 140 -59 55 -257 159 -349 183 -110 29 -162 28 -245 -4z m-1835 -1263
c9 -40 19 -90 22 -112 3 -23 11 -62 18 -88 l12 -46 -69 -7 c-38 -4 -72 -5 -74
-2 -3 3 0 15 6 27 17 31 8 77 -29 155 -32 67 -32 70 -15 83 59 41 90 60 101
61 6 1 19 -31 28 -71z m-1873 -4735 c25 -38 56 -88 68 -113 24 -46 67 -109 85
-122 5 -4 6 -8 2 -8 -29 0 -214 180 -254 248 -29 48 -23 62 28 62 21 0 35 -13
71 -67z m-179 8 c20 -34 21 -41 7 -41 -19 0 -62 50 -56 65 7 20 29 10 49 -24z
m87 -114 l35 -41 -37 27 c-20 16 -39 35 -42 43 -10 25 8 14 44 -29z m2751
-328 c118 -38 152 -47 201 -48 30 -1 64 -29 51 -42 -13 -13 -268 -18 -348 -7
-82 11 -167 38 -172 54 -2 6 10 24 28 40 17 16 36 34 43 41 15 16 56 8 197
-38z m-266 -125 l29 -6 -27 -24 c-18 -15 -36 -21 -54 -19 -16 2 -34 4 -40 4
-18 1 -16 21 3 42 15 17 23 17 89 3z m670 -15 c11 -16 4 -18 -83 -22 -81 -3
-100 9 -31 20 19 3 36 7 38 9 9 9 70 3 76 -7z m-466 -18 c13 -1 21 -4 17 -8
-9 -9 -156 -11 -156 -2 0 15 18 19 65 15 27 -3 61 -5 74 -5z m231 -6 c0 -6
-29 -10 -65 -11 -59 0 -74 4 -60 18 9 9 125 3 125 -7z m-480 -159 c0 -3 -4 -8
-10 -11 -5 -3 -10 -1 -10 4 0 6 5 11 10 11 6 0 10 -2 10 -4z"/>
<path d="M2195 1880 c3 -5 8 -10 11 -10 2 0 4 5 4 10 0 6 -5 10 -11 10 -5 0
-7 -4 -4 -10z"/>
<path d="M2695 1780 c3 -5 8 -10 11 -10 2 0 4 5 4 10 0 6 -5 10 -11 10 -5 0
-7 -4 -4 -10z"/>
<path d="M2395 1760 c-3 -5 -1 -10 4 -10 6 0 11 5 11 10 0 6 -2 10 -4 10 -3 0
-8 -4 -11 -10z"/>
<path d="M3799 1753 c-12 -16 -12 -17 2 -5 9 7 25 10 35 6 16 -5 16 -4 4 5
-20 15 -25 14 -41 -6z"/>
<path d="M3870 1760 c0 -5 5 -10 11 -10 5 0 7 5 4 10 -3 6 -8 10 -11 10 -2 0
-4 -4 -4 -10z"/>
<path d="M2786 1751 c-3 -5 2 -15 12 -22 15 -12 16 -12 5 2 -7 9 -10 19 -6 22
3 4 4 7 0 7 -3 0 -8 -4 -11 -9z"/>
<path d="M2847 1739 c7 -7 15 -10 18 -7 3 3 -2 9 -12 12 -14 6 -15 5 -6 -5z"/>
<path d="M3346 1732 c-3 -5 1 -9 9 -9 8 0 12 4 9 9 -3 4 -7 8 -9 8 -2 0 -6 -4
-9 -8z"/>
<path d="M3015 1720 c3 -5 8 -10 11 -10 2 0 4 5 4 10 0 6 -5 10 -11 10 -5 0
-7 -4 -4 -10z"/>
</g>
</svg>
