<?xml version="1.0" encoding="UTF-8"?><!DOCTYPE svg PUBLIC "-//W3C//DTD SVG 1.1//EN" "http://www.w3.org/Graphics/SVG/1.1/DTD/svg11.dtd"><svg xmlns="http://www.w3.org/2000/svg" xmlns:xlink="http://www.w3.org/1999/xlink"><defs><clipPath id="clip0_2_331"><path fill="#fff" d="M0 0h64v63H0z"/></clipPath></defs><symbol id="icon-cart" viewBox="0 0 54 54"><rect x="2.5" y="2.5" width="49" height="49" rx="24.5"/><path fill-rule="evenodd" clip-rule="evenodd" d="M23 37a2 2 0 100-4 2 2 0 000 4zM33 37a2 2 0 100-4 2 2 0 000 4z"/><path d="M20.245 21.333H36l-1.527 7.271c-.172.824-.938 1.412-1.819 1.396h-9.609c-.918.007-1.698-.64-1.818-1.508l-1.381-9.984c-.12-.862-.889-1.507-1.8-1.508H16"/></symbol><symbol id="icon-flash" viewBox="0 0 64 63"><g fill="none"><g clip-path="url(#clip0_2_331)"><path d="M44.27.326c-.344-.18-.737-.191-1.123-.191-.41 0-.789.257-1.073.558L10.482 34.161c-.246.26-.473.587-.473.94s-.02.717.123 1.046a1.836 1.836 0 001.69 1.107h13.3l.003.004-7.165 23.214c0 .397-.107.823.044 1.209.152.386.43.71.79.919.359.208.778.23 1.19.23.411 0 .79-.257 1.075-.56l31.592-33.467c.246-.26.473-.587.473-.94s.02-.717-.123-1.046a1.836 1.836 0 00-1.69-1.107h-13.3l-.003-.004 7.164-23.21c0-.397.107-.824-.044-1.21-.152-.387-.498-.752-.858-.96z" stroke="#0178F3" stroke-linecap="round" stroke-linejoin="round"/></g></g></symbol><symbol id="icon-graph" viewBox="0 0 26 26"><path d="M4.5 21.5v-13h4v13h-4zM11.5 21.5v-9h4v9h-4zM18.5 21.5v-17h4v17h-4z"/></symbol><symbol id="icon-imperium" viewBox="0 0 132 32"><g fill="none"><path d="M35.761 23.126c1.611 0 2.45-.49 2.45-1.449 0-.958-.839-1.448-2.45-1.448h-6.399v2.897h6.4zm-6.399 8.644h-2.927V17.355h9.803c3.245 0 4.901 1.426 4.901 4.322 0 2.875-1.656 4.323-4.901 4.323h-6.876v5.77zm-26.412 0H0V17.355h2.95V31.77zm94.01-14.415h2.926v9.603c0 3.208-1.633 4.813-4.9 4.813h-4.902c-3.268 0-4.901-1.605-4.901-4.813v-9.603h2.95v9.224c0 1.537.748 2.317 2.337 2.317h4.107c1.565 0 2.36-.78 2.36-2.317l.022-9.224zM71 23.125c1.612 0 2.451-.49 2.451-1.448s-.817-1.448-2.45-1.448h-6.4v2.897h6.4zM66.1 26h-1.498v5.77h-2.905V17.355H71.5c3.245 0 4.901 1.426 4.901 4.322 0 2.875-1.656 4.323-4.901 4.323H70.5l6.853 5.77h-4.402L66.099 26zm16.155 5.77h-2.95V17.355h2.95V31.77zm18.721.023l4.833-14.438h2.927l-4.811 14.438h-2.949zm14.703 0h-2.949l4.81-14.438h2.95l-4.811 14.438zm-8.804 0l4.811-14.438h2.927l-4.811 14.415-2.927.023zm-101.906.044L9.78 17.4h2.95L7.92 31.837H4.97zm14.681 0H16.7L21.512 17.4h2.927l-4.787 14.438zm-8.804 0l4.81-14.438h2.928l-4.81 14.438h-2.928zM43.825 32v-2.92h14.683V32H43.825zM43.825 23.218h14.683v2.92H43.825v-2.92zM43.825 17.378h14.683v2.92H43.825v-2.92zM.855 5.48c-.12 0-.184-.02-.192-.061a1.195 1.195 0 01-.012-.205V.688.555C.659.491.707.46.795.46h1.12c.507 0 .925.084 1.254.253.33.161.57.418.723.772.16.346.24.801.24 1.364 0 .5-.06.917-.18 1.255-.112.33-.273.596-.482.797-.2.201-.434.35-.699.446a2.646 2.646 0 01-.843.133H.855zM.518 8.906V.652A.24.24 0 01.554.507C.586.475.643.459.723.459H1.3c.097 0 .153.032.169.096l.024.097v8.062c0 .064-.016.108-.048.132-.024.025-.105.04-.241.049a12.95 12.95 0 01-.687.012zm.952-4.333h.554c.225 0 .41-.06.554-.181.153-.12.27-.314.35-.58.08-.273.12-.635.12-1.085 0-.282-.028-.527-.084-.737a.883.883 0 00-.301-.494c-.137-.121-.325-.182-.566-.182H1.47v3.259zM6.414 9.027c-.225 0-.441-.02-.65-.06a1.207 1.207 0 01-.543-.23 1.318 1.318 0 01-.385-.554c-.097-.242-.145-.572-.145-.99 0-.418.044-.756.133-1.014.088-.265.209-.466.361-.603a1.15 1.15 0 01.518-.29c.193-.048.39-.072.59-.072.13 0 .278.012.447.036.176.024.325.064.445.12v-.168-.387-.398c0-.193-.032-.338-.096-.434a.45.45 0 00-.253-.218.95.95 0 00-.398-.072 4.718 4.718 0 00-1.602.278.854.854 0 01-.109-.29 1.854 1.854 0 01-.024-.278.75.75 0 01.024-.18.29.29 0 01.109-.145c.104-.065.321-.133.65-.206.33-.08.723-.12 1.181-.12.522 0 .9.108 1.133.326.24.217.361.599.361 1.146v.64c0 .458-.004.921-.012 1.388 0 .458-.004.893-.012 1.303a18.37 18.37 0 01-.048 1.062c-.16.097-.381.19-.663.278a3.394 3.394 0 01-1.012.132zm.097-.82c.128 0 .253-.02.373-.06a.566.566 0 00.253-.145c.016-.13.024-.306.024-.531.008-.226.012-.463.012-.713.008-.249.012-.482.012-.7a.943.943 0 00-.289-.084 1.845 1.845 0 00-.277-.024c-.128 0-.249.016-.361.048a.532.532 0 00-.277.17.851.851 0 00-.193.361c-.048.161-.073.374-.073.64 0 .217.017.394.049.53a.83.83 0 00.168.327c.073.072.157.12.253.145.097.024.205.036.326.036zM10.336 9.027c-.249 0-.482-.032-.698-.096a1.475 1.475 0 01-.519-.241c-.128-.113-.192-.234-.192-.363 0-.064.012-.152.036-.265.032-.113.08-.221.144-.326.17.129.358.237.567.326.217.08.43.12.638.12.145 0 .286-.024.422-.072a.766.766 0 00.361-.302c.097-.144.145-.358.145-.64 0-.345-.08-.595-.24-.747-.162-.153-.39-.23-.688-.23H9.83c-.16 0-.24-.088-.24-.265v-.531h1.024c.16-.161.269-.322.325-.483.064-.169.096-.346.096-.531 0-.25-.06-.443-.18-.58-.113-.144-.294-.217-.543-.217-.2 0-.39.045-.566.133-.169.08-.321.177-.458.29a1.528 1.528 0 01-.156-.266.676.676 0 01-.06-.253c0-.097.043-.201.132-.314.096-.113.245-.21.446-.29.2-.088.466-.132.795-.132.53 0 .92.12 1.169.362.249.241.373.571.373.99 0 .297-.06.575-.18.832a1.77 1.77 0 01-.482.652c.297.153.522.35.674.591.153.234.23.555.23.966 0 .305-.045.575-.133.808-.089.234-.217.43-.386.592-.16.16-.357.281-.59.362-.225.08-.486.12-.784.12zM13.603 11.284c-.169 0-.29-.032-.362-.096-.072-.057-.108-.165-.108-.326V3.234c.24-.152.514-.27.82-.35.304-.088.618-.132.939-.132.402 0 .747.072 1.036.217.297.137.526.39.687.76.16.362.24.873.24 1.533 0 .644-.035 1.19-.108 1.641a4.76 4.76 0 01-.289 1.087c-.12.281-.26.498-.421.651a1.303 1.303 0 01-.482.302c-.161.056-.326.084-.494.084-.217 0-.41-.032-.579-.096a1.003 1.003 0 01-.373-.241v2.51a2.34 2.34 0 01-.253.06 1.413 1.413 0 01-.253.024zm1.156-3.138c.097 0 .201-.028.314-.084.112-.056.22-.177.325-.362.112-.185.2-.463.265-.833.072-.37.108-.869.108-1.496 0-.483-.036-.85-.108-1.099-.064-.257-.165-.43-.301-.519a.876.876 0 00-.518-.144c-.273 0-.518.076-.735.229v3.91c.088.145.188.25.3.314a.772.772 0 00.35.084zM19.252 9.027c-.225 0-.442-.02-.651-.06a1.207 1.207 0 01-.542-.23 1.319 1.319 0 01-.386-.554c-.096-.242-.144-.572-.144-.99 0-.418.044-.756.132-1.014.088-.265.209-.466.362-.603a1.15 1.15 0 01.518-.29 2.42 2.42 0 01.59-.072c.129 0 .277.012.446.036.177.024.325.064.446.12v-.168-.387-.398c0-.193-.032-.338-.097-.434a.45.45 0 00-.253-.218.95.95 0 00-.397-.072 4.718 4.718 0 00-1.603.278.855.855 0 01-.108-.29 1.849 1.849 0 01-.024-.278c0-.056.008-.116.024-.18a.29.29 0 01.108-.145c.105-.065.322-.133.65-.206.33-.08.724-.12 1.182-.12.522 0 .9.108 1.132.326.241.217.362.599.362 1.146v.64c0 .458-.004.921-.012 1.388 0 .458-.004.893-.012 1.303-.008.402-.024.756-.049 1.062a3.16 3.16 0 01-.662.278 3.394 3.394 0 01-1.012.132zm.096-.82c.129 0 .253-.02.374-.06a.566.566 0 00.253-.145c.016-.13.024-.306.024-.531a20.1 20.1 0 00.012-.713c.008-.249.012-.482.012-.7a.942.942 0 00-.29-.084 1.844 1.844 0 00-.277-.024c-.128 0-.248.016-.361.048a.532.532 0 00-.277.17.852.852 0 00-.193.361c-.048.161-.072.374-.072.64 0 .217.016.394.048.53.04.138.096.246.169.327.072.072.156.12.253.145.096.024.205.036.325.036zM23.764 9.027c-.482 0-.863-.096-1.145-.29-.273-.2-.465-.546-.578-1.037-.104-.499-.157-1.19-.157-2.076v-1.17c0-.781.045-1.409.133-1.883.088-.475.241-.85.458-1.123.217-.273.522-.487.916-.64L25.51 0c.08.217.133.386.157.507.032.113.04.197.024.253a.369.369 0 01-.12.17.79.79 0 01-.302.156l-1.446.507c-.313.105-.558.254-.735.447-.168.193-.289.45-.361.772-.072.322-.113.74-.12 1.255.16-.458.349-.792.566-1.002.217-.209.526-.313.928-.313.361 0 .662.096.903.29.25.184.434.494.555.929.128.426.192 1.01.192 1.75 0 .788-.076 1.428-.229 1.919-.152.482-.377.836-.674 1.062-.298.217-.66.325-1.085.325zm.012-.832a.739.739 0 00.374-.097.848.848 0 00.289-.362c.08-.177.14-.418.18-.724.049-.314.073-.704.073-1.17 0-.588-.032-1.043-.096-1.364-.057-.33-.145-.56-.265-.688a.61.61 0 00-.482-.206.655.655 0 00-.494.218c-.137.136-.245.37-.326.7-.072.33-.108.784-.108 1.363 0 .644.032 1.135.096 1.473.064.338.16.567.29.688a.688.688 0 00.47.169zM28.327 9.027a2.58 2.58 0 01-.82-.12 1.152 1.152 0 01-.59-.435c-.16-.217-.28-.53-.361-.941-.08-.418-.12-.966-.12-1.641 0-1.103.176-1.9.53-2.39.353-.499.843-.748 1.47-.748.425 0 .775.088 1.048.265.28.177.49.491.626.942.137.45.205 1.082.205 1.894 0 1.127-.169 1.94-.506 2.438-.337.491-.831.736-1.482.736zm.024-.832c.177 0 .33-.06.458-.181.137-.13.245-.362.325-.7.08-.338.12-.821.12-1.449 0-.643-.031-1.126-.096-1.448-.064-.33-.156-.551-.277-.664a.677.677 0 00-.482-.169.665.665 0 00-.47.194c-.136.12-.244.35-.325.687-.072.338-.108.821-.108 1.449 0 .49.02.889.06 1.194.04.306.092.54.157.7a.635.635 0 00.277.314.907.907 0 00.361.073zM31.98 8.907v-5.19h-1.314c0-.25.004-.434.012-.555.008-.12.028-.197.06-.23.033-.04.08-.06.145-.06h3.386c0 .25-.004.439-.012.568-.008.12-.028.197-.06.229-.025.032-.073.048-.145.048h-1.096v4.997c0 .064-.013.108-.037.132-.024.025-.104.04-.24.049-.137.008-.37.012-.7.012zM36.407 9.027c-.225 0-.441-.02-.65-.06a1.207 1.207 0 01-.542-.23 1.318 1.318 0 01-.386-.554c-.096-.242-.145-.572-.145-.99 0-.418.044-.756.133-1.014.088-.265.209-.466.361-.603a1.15 1.15 0 01.519-.29 2.42 2.42 0 01.59-.072c.128 0 .277.012.446.036.176.024.325.064.446.12v-.168-.387-.398c0-.193-.033-.338-.097-.434a.45.45 0 00-.253-.218.95.95 0 00-.398-.072 4.717 4.717 0 00-1.602.278.855.855 0 01-.108-.29 1.849 1.849 0 01-.025-.278c0-.056.008-.116.025-.18a.29.29 0 01.108-.145c.104-.065.321-.133.65-.206.33-.08.724-.12 1.181-.12.523 0 .9.108 1.133.326.241.217.361.599.361 1.146v.64c0 .458-.004.921-.012 1.388 0 .458-.004.893-.012 1.303-.008.402-.024.756-.048 1.062a3.16 3.16 0 01-.663.278 3.395 3.395 0 01-1.012.132zm.097-.82c.128 0 .253-.02.373-.06a.567.567 0 00.253-.145c.016-.13.024-.306.024-.531a20.1 20.1 0 00.012-.713c.009-.249.013-.482.013-.7a.942.942 0 00-.29-.084 1.844 1.844 0 00-.277-.024c-.128 0-.249.016-.361.048a.532.532 0 00-.277.17.852.852 0 00-.193.361c-.048.161-.072.374-.072.64 0 .217.016.394.048.53.04.138.096.246.168.327.073.072.157.12.253.145.097.024.205.036.326.036zM39.209 8.907V3.065c0-.064.012-.108.036-.132.024-.024.105-.04.241-.049.145-.008.382-.012.71-.012v2.595h1.58V3.065c0-.064.011-.108.035-.132.033-.024.117-.04.254-.049.144-.008.377-.012.698-.012v5.842c0 .064-.012.108-.036.132-.024.025-.104.04-.24.049a14.07 14.07 0 01-.712.012V6.312h-1.578v2.402c0 .064-.012.108-.036.132-.024.025-.105.04-.241.049-.137.008-.374.012-.711.012zM45.718 9.027a2.58 2.58 0 01-.82-.12 1.152 1.152 0 01-.59-.435c-.16-.217-.28-.53-.361-.941-.08-.418-.12-.966-.12-1.641 0-1.103.176-1.9.53-2.39.353-.499.843-.748 1.47-.748.425 0 .775.088 1.048.265.281.177.49.491.626.942.137.45.205 1.082.205 1.894 0 1.127-.169 1.94-.506 2.438-.337.491-.831.736-1.482.736zm.024-.832c.177 0 .33-.06.458-.181.137-.13.245-.362.325-.7.08-.338.12-.821.12-1.449 0-.643-.031-1.126-.096-1.448-.064-.33-.156-.551-.277-.664a.677.677 0 00-.482-.169.665.665 0 00-.47.194c-.136.12-.245.35-.325.687-.072.338-.108.821-.108 1.449 0 .49.02.889.06 1.194.04.306.092.54.157.7a.635.635 0 00.277.314.907.907 0 00.361.073zM50.48 8.907V3.065c0-.056.02-.1.06-.132.048-.04.136-.06.265-.06h1.108c.314 0 .615.036.904.108.29.064.526.197.711.398.185.193.277.491.277.893 0 .258-.04.48-.12.664-.08.185-.177.334-.29.447a1.188 1.188 0 01-.337.241.876.876 0 01-.277.097c.064.008.129.02.193.036.072.008.136.02.193.036.048.016.116.044.204.084a.935.935 0 01.302.182c.104.08.192.197.265.35.08.144.12.337.12.579 0 .362-.076.688-.229.977a1.65 1.65 0 01-.699.688c-.313.17-.715.254-1.205.254H50.48zm1.458-.797c.32 0 .57-.096.747-.29.184-.193.277-.49.277-.893a1 1 0 00-.097-.47.524.524 0 00-.289-.266c-.136-.056-.325-.084-.566-.084-.12 0-.233.004-.337.012a3.09 3.09 0 01-.254.012v1.967c.08.008.17.012.266.012h.253zm-.519-2.667c.08.008.161.012.241.012h.266a.928.928 0 00.421-.096.737.737 0 00.313-.314c.089-.153.133-.354.133-.604 0-.193-.028-.342-.084-.446a.475.475 0 00-.205-.242.564.564 0 00-.29-.096 4.724 4.724 0 00-.337-.012h-.217c-.064 0-.12.004-.168.012h-.073v1.786zM132 12.995c0 2.38-1.819 4.248-4.206 4.248a4.212 4.212 0 01-4.228-4.248c0-2.333 1.864-4.2 4.228-4.2 2.387 0 4.206 1.867 4.206 4.2zm-7.366 0c0 1.867 1.342 3.36 3.206 3.36 1.796 0 3.114-1.493 3.114-3.336 0-1.867-1.318-3.384-3.137-3.384-1.841 0-3.183 1.517-3.183 3.36zm2.524 2.194h-.955v-4.2c.364-.07.909-.117 1.568-.117.773 0 1.114.116 1.433.303.227.187.409.513.409.933 0 .467-.341.817-.841.98v.047c.409.164.614.467.75 1.027.114.63.205.887.296 1.05h-1.023c-.114-.163-.205-.536-.319-1.026-.068-.467-.318-.677-.841-.677h-.455l-.022 1.68zm.022-2.38h.455c.523 0 .955-.187.955-.607 0-.373-.273-.63-.864-.63-.25 0-.432.023-.523.046v1.19h-.023z" fill="#333"/></g></symbol><symbol id="icon-left" viewBox="0 0 18 18"><path d="M12 3L6 9l6 6"/></symbol><symbol id="icon-login" viewBox="0 0 26 26"><path d="M21.67 22.75v-2.167a4.333 4.333 0 00-4.334-4.333H8.669a4.333 4.333 0 00-4.333 4.333v2.167"/><path fill-rule="evenodd" clip-rule="evenodd" d="M12.997 11.917a4.333 4.333 0 100-8.667 4.333 4.333 0 000 8.667z"/></symbol><symbol id="icon-logo" viewBox="0 0 62 30"><path fill-rule="evenodd" clip-rule="evenodd" d="M36.394 0H62l-6.125 12.975-8.061 1.69 6.204 2.124-2.608 5.505C49.197 26.697 42.282 30 33.312 30H0l5.256-11.049 12.842 3.382h18.889l1.62-3.381H19.718L7.271 14.665l16.043-3.382h18.889l1.62-3.38H24.934l-16.003 3.38c.118-.275.513-1.1 1.62-3.38C12.684 3.42 19.639.038 28.728.038L36.394 0z"/></symbol><symbol id="icon-logo_lettered" viewBox="0 0 261 28"><g fill="none"><path fill-rule="evenodd" clip-rule="evenodd" d="M135.427.5h23.774l-4.982 10.227c-2.125 3.892-8.462 6.794-16.704 6.794h-17.51l-4.872 9.944h-13.407l8.242-16.844h30.917l1.502-3.044h-30.881C113.485 3.543 119.932.5 128.357.5h7.07zm74.655 0H179.202c-8.426 0-14.873 3.043-16.851 7.077h30.881l-1.503 3.044H160.85l-3.371 6.9h13.371l-22.419 9.944h22.821l15.643-6.972-3.407 6.972c8.241 0 14.579-2.902 16.704-6.795l4.908-10.05 1.503-3.043.842-1.769L210.082.5zM33.738.5h23.737l-5.678 11.678-7.473 1.521 5.751 1.911-2.417 4.954C45.606 24.527 39.196 27.5 30.88 27.5H0l4.872-9.944L16.777 20.6h17.51l1.502-3.044H18.28L6.74 13.7l14.873-3.043h17.51l1.501-3.043h-17.51L8.28 10.656c.11-.248.476-.99 1.502-3.043C11.759 3.579 18.206.535 26.63.535L33.738.5zm169.75 26.965l8.242-16.844h13.408l-4.835 9.943h17.509l6.337-12.987H213.27C215.907 2.694 223.16.5 230.119.5H261l-9.817 20.064h6.557c-2.052 3.928-8.462 6.9-16.777 6.9h-37.475zm-152.643 0l8.242-16.809h30.917l1.502-3.043H60.589C62.567 3.579 69.014.535 77.439.535h30.881l-8.243 16.844s.477-.955-1.501 3.044c-1.978 4.034-8.425 7.042-16.814 7.077l4.871-9.944h-17.51L64.253 27.5H50.845v-.035z" fill="#333"/></g></symbol><symbol id="icon-phone" viewBox="0 0 26 26"><path d="M19.55 22.073l-.006.006c-.29.298-.69.42-1.14.421-2.226-.07-4.367-1.166-6.19-2.349-2.983-2.172-5.69-4.844-7.385-8.046-.676-1.4-1.392-3.05-1.325-4.444v-.01l.001-.008c.006-.512.144-.92.41-1.163l.008-.007.008-.008 2.804-2.803c.201-.166.333-.171.405-.156.085.017.215.089.352.295l2.252 4.27a.749.749 0 01-.162.846L8.545 9.953l-.027.028-.023.031c-.11.152-.2.35-.202.587v.066l.016.064c.435 1.684 1.73 3.187 2.817 4.184.162.15.335.315.515.488.374.359.782.75 1.2 1.09.629.511 1.355.974 2.205 1.157.12.032.272.06.43.052a.882.882 0 00.569-.225l.008-.007.008-.008 1.181-1.201c.328-.236.69-.27.883-.159l.116.068h.02l3.967 2.343c.333.212.336.562.138.768l-2.816 2.794z"/></symbol><symbol id="icon-play" viewBox="0 0 21 23"><g fill="none"><path d="M19.775 10.856a.744.744 0 010 1.289L1.917 22.455a.744.744 0 01-1.116-.645V1.19c0-.572.62-.93 1.116-.644l17.858 10.31z" fill="#F5F5F5"/></g></symbol><symbol id="icon-review" viewBox="0 0 117 116"><g fill="none"><path d="M109.535 65.185c1.637-.114 2.693-1.294 2.835-2.89.173-1.952-1.161-3.523-3.575-3.738-2.413-.214-4.003 1.089-4.178 3.05-.147 1.657.784 2.962 2.255 3.341l.105-1.149c-.948-.281-1.406-1.139-1.321-2.093.115-1.293 1.193-2.182 3.039-2.018 1.831.163 2.75 1.225 2.635 2.526-.086.962-.699 1.72-1.692 1.822l-.103 1.15zM111.489 69.206l-7.257-2.175-.312 1.042 5.255 1.575-.021.067-5.885.569-.259.864 4.599 3.711-.02.067-5.251-1.573-.313 1.041 7.257 2.175.398-1.329-4.948-4 .025-.085 6.334-.62.398-1.33zM101.341 84.396c2.135 1.147 4.115.564 5.043-1.162.931-1.734.322-3.703-1.812-4.85-2.132-1.145-4.113-.568-5.044 1.166-.928 1.727-.32 3.7 1.813 4.846zm.536-.997c-1.626-.874-2.047-2.208-1.43-3.355.618-1.15 1.961-1.533 3.587-.66 1.626.874 2.049 2.206 1.431 3.356-.617 1.147-1.962 1.533-3.588.659zM102.243 88.255l-1.471 1.846-5.156-4.108-.71.892 5.156 4.107-1.472 1.849.77.613 3.652-4.586-.769-.613zM91.86 90.51l-.842.771 1.8 1.964-1.146 1.05c-1.295 1.187-1.219 2.557-.274 3.588.942 1.028 2.292 1.225 3.59.036l1.991-1.825-5.118-5.585zm1.612 3.45l2.002 2.184-1.058.97c-.834.764-1.59.624-2.17-.009-.58-.632-.666-1.411.157-2.166l1.07-.98zM86.59 95.228l-3.986 2.662.546.818 3.036-2.027 1.288 1.929-2.793 1.865.544.815 2.794-1.865 1.281 1.92-3 2.002.547.819 3.95-2.638-4.206-6.3zM83.808 104.922l-2.145.983-2.748-5.992-1.036.475 2.748 5.992-2.148.986.41.894 5.33-2.444-.411-.894zM73.605 106.934l.788 2.952 1.108-.295-1.954-7.32-2.741.732c-1.63.435-2.32 1.592-1.967 2.902.346 1.309 1.503 1.9 3.133 1.465l1.633-.436zm-.248-.929l-1.633.436c-.947.253-1.614-.151-1.79-.812-.182-.679.173-1.444 1.12-1.697l1.633-.436.67 2.509zM56.355 108.544c.047 2.422 1.525 3.862 3.486 3.825 1.967-.038 3.385-1.535 3.338-3.957-.047-2.419-1.521-3.863-3.489-3.825-1.96.038-3.381 1.534-3.335 3.957zm1.132-.022c-.035-1.846.922-2.867 2.223-2.892 1.306-.025 2.298.958 2.334 2.804.035 1.845-.918 2.866-2.224 2.892-1.301.025-2.297-.959-2.333-2.804zM53.327 111.209l-2.329-.38 1.061-6.506-1.124-.183-1.062 6.506-2.332-.381-.159.972 5.787.943.158-.971zM43.94 102.368c-1.464-.499-2.837.009-3.24 1.201-.313.905.015 1.744.917 2.216l-.02.056c-.814-.063-1.502.359-1.773 1.165-.363 1.053.195 2.248 1.574 2.718 1.316.45 2.645.016 3.077-1.138l-1.046-.357c-.25.649-1.005.837-1.709.597-.732-.25-1.06-.858-.83-1.519.233-.694.945-.959 1.74-.688l.605.207.301-.882-.605-.207c-.994-.339-1.397-1.039-1.15-1.761.237-.696 1.004-.962 1.848-.674.777.265 1.247.871 1.071 1.522l1.1.375c.353-1.184-.41-2.336-1.86-2.831zM35.716 104.136l-1.525 2.648.993.572 3.781-6.565-2.458-1.416c-1.462-.842-2.767-.51-3.442.669-.679 1.171-.276 2.406 1.186 3.248l1.465.844zm-6.882-.437l.99.57 3.782-6.565-.99-.57-3.782 6.565zm7.362-.397l-1.465-.843c-.85-.49-1.037-1.246-.696-1.839.351-.609 1.142-.9 1.992-.412l1.465.844-1.296 2.25zM30.173 95.46l-2.19-1.907c-1.328-1.156-2.503-1.017-3.266-.141-.77.884-.585 1.923-.046 2.447l-.048.056c-.641-.323-1.39-.347-2.012.367-.736.845-.721 2.01.495 3.07l2.093 1.822 4.974-5.714zm-1.505-.011l-1.594 1.83-1.275-1.11c-.692-.603-.735-1.425-.262-1.97.418-.48 1.058-.555 1.886.166l1.245 1.084zm-2.18 2.502l-1.512 1.738-1.178-1.025c-.683-.595-.696-1.239-.283-1.713.48-.552 1.238-.51 1.819-.005l1.155 1.005zM19.63 84.208l-.808-1.136-1.588 4.986-4.52-.504.807 1.137 4.267.48.217.304-2.608 1.854.662.932 6.175-4.39-.663-.931-2.767 1.967-.467-.657 1.293-4.042zM11.539 77.241c-2.187 1.043-2.889 2.984-2.045 4.753.847 1.777 2.795 2.45 4.982 1.408 2.184-1.041 2.89-2.98 2.043-4.757-.843-1.77-2.793-2.447-4.98-1.404zm.487 1.022c1.666-.794 2.992-.344 3.552.831.562 1.179.075 2.488-1.59 3.283-1.667.794-2.99.347-3.552-.832-.56-1.175-.076-2.488 1.59-3.282zM14.161 73.704l-.29-1.105-3.195.84-.96-3.653 3.195-.84-.292-1.109-7.327 1.926.292 1.109 3.184-.837.96 3.653-3.184.837.29 1.105 7.327-1.926zM6.499 59.515c-1.597.377-2.449 1.712-2.331 3.31.143 1.954 1.714 3.29 4.13 3.112 2.416-.177 3.776-1.72 3.632-3.683-.122-1.66-1.252-2.797-2.764-2.935l.08 1.152c.982.124 1.573.897 1.643 1.852.095 1.295-.826 2.346-2.674 2.482-1.834.134-2.912-.766-3.008-2.068-.07-.963.412-1.81 1.376-2.07L6.5 59.514zM4.963 56.108l.254-2.346 6.554.71.123-1.133-6.554-.71.255-2.35-.978-.106-.632 5.829.978.106zM12.649 48.088l-1.74-1.215.807-2.848 2.117-.119.331-1.167-8.032.558-.36 1.27 6.546 4.688.33-1.167zm-2.574-1.798l-2.806-1.956.016-.057 3.415-.194-.625 2.207zM14.594 41.3l.5-1.028-2.972-1.444 1.65-3.397 2.972 1.444.5-1.032-6.813-3.31-.501 1.03 2.96 1.44-1.65 3.397-2.96-1.44-.5 1.029 6.814 3.31zM12.928 29.993l1.389-1.909 5.33 3.878.67-.921-5.33-3.878 1.39-1.912-.795-.579-3.45 4.742.796.579zM17.788 21.875l5.26 5.454.755-.73-1.084-6.672.05-.049 3.857 4 .823-.794-5.259-5.453-.762.734 1.088 6.68-.05.05-3.863-4.005-.815.785zM29.424 21.293l.955-.628-1.814-2.76 3.156-2.075 1.814 2.761.959-.63-4.16-6.331-.959.63 1.808 2.751-3.156 2.074-1.808-2.751-.956.627 4.16 6.332zM37.349 16.358L37.2 14.24l2.721-1.163 1.424 1.572 1.116-.477-5.484-5.895-1.214.519.47 8.037 1.116-.476zm-.22-3.132l-.244-3.412.054-.024 2.298 2.534-2.109.902zM51.23 12.033l1.374-.235L48.8 8.204l2.414-3.854-1.374.235-2.283 3.636-.369.063-.539-3.154-1.127.193L46.8 12.79l1.127-.192-.572-3.348.794-.135 3.081 2.918zM61.5 7.762c.029-2.422-1.404-3.908-3.364-3.93-1.968-.023-3.431 1.429-3.46 3.851-.028 2.42 1.402 3.908 3.37 3.931 1.96.023 3.427-1.429 3.455-3.852zM60.37 7.75c-.021 1.846-1.01 2.837-2.312 2.822-1.305-.015-2.266-1.029-2.245-2.875.021-1.845 1.006-2.836 2.312-2.821 1.301.015 2.266 1.028 2.245 2.874zM63.563 11.65l1.122.223.643-3.24 3.705.736-.644 3.24 1.125.224 1.476-7.43-1.125-.224-.641 3.229-3.705-.736.642-3.23-1.121-.222-1.477 7.43zM79.67 10.98c.363-1.601-.462-2.952-1.948-3.548-1.82-.73-3.709.094-4.611 2.343-.902 2.249-.113 4.147 1.713 4.88 1.545.62 3.063.105 3.85-1.194l-1.069-.433c-.543.827-1.496 1.018-2.385.662-1.206-.484-1.745-1.772-1.055-3.492.684-1.707 1.967-2.28 3.179-1.794.896.36 1.445 1.165 1.255 2.146l1.072.43zM83.175 10.958l2 1.253-3.498 5.587.966.605 3.498-5.588 2.003 1.254.522-.834-4.97-3.11-.521.833zM87.115 21.426l1.852-1.035 2.21 1.967-.815 1.958.906.806 3-7.471-.986-.878-7.073 3.847.906.806zm2.74-1.532l2.984-1.673.044.04-1.314 3.158-1.714-1.525zM92.403 26.178l.709.897 2.591-2.049 2.343 2.963-2.592 2.049.712.9 5.942-4.7-.711-.899-2.582 2.042-2.343-2.963 2.583-2.042-.71-.896-5.942 4.698zM103.318 29.588l1.117 2.079-5.807 3.12.54 1.003 5.806-3.12 1.119 2.083.867-.466-2.775-5.165-.867.466zM108.499 37.462l-7.197 2.366.328.998 6.481 1.923.022.067-5.278 1.735.357 1.086 7.197-2.366-.331-1.005-6.489-1.924-.022-.067 5.286-1.737-.354-1.075zM103.937 48.116l.15 1.133 3.275-.432.493 3.745-3.275.431.15 1.137 7.511-.99-.15-1.136-3.264.43-.493-3.745 3.263-.43-.149-1.133-7.511.99z" fill="#F5F5F5"/></g></symbol><symbol id="icon-right" viewBox="0 0 19 18"><path d="M6.002 15l6-6-6-6"/></symbol><symbol id="icon-sale" viewBox="0 0 57 57"><g fill="none"><path d="M23.863 2.657c2.402-2.93 6.872-2.93 9.273 0l3.062 3.735a6.915 6.915 0 005.243 2.534l4.82.072c3.78.057 6.569 3.564 5.782 7.277l-1.002 4.73a6.96 6.96 0 001.295 5.69l2.948 3.827c2.314 3.002 1.318 7.377-2.063 9.074L48.91 41.76a6.94 6.94 0 00-3.628 4.564l-1.143 4.698c-.897 3.687-4.926 5.631-8.355 4.038l-4.374-2.033a6.903 6.903 0 00-5.82 0l-4.374 2.033c-3.43 1.593-7.458-.351-8.355-4.038l-1.143-4.698A6.94 6.94 0 008.09 41.76l-4.31-2.164C.397 37.9-.599 33.524 1.715 30.522l2.948-3.826a6.96 6.96 0 001.294-5.69l-1.001-4.73c-.787-3.714 2.003-7.22 5.782-7.278l4.82-.072a6.915 6.915 0 005.243-2.534l3.061-3.735z" stroke="#F64F00" stroke-width=".92"/><path d="M19.741 26.423l.007.004.006.003c.85.44 1.787.656 2.8.656 1.012 0 1.94-.217 2.773-.658h0l.003-.002c.842-.456 1.517-1.06 2.014-1.814h0l.003-.005c.5-.78.75-1.642.75-2.575a4.54 4.54 0 00-.753-2.55c-.497-.754-1.173-1.348-2.016-1.785-.832-.462-1.76-.689-2.775-.689s-1.954.228-2.805.69a5.323 5.323 0 00-1.985 1.784l.371.245-.371-.245a4.54 4.54 0 00-.754 2.55c0 .933.25 1.795.75 2.575h0l.004.005a5.576 5.576 0 001.978 1.811zm-.862 11.085l-.3.344.342.302 1.85 1.632.364.322.3-.382 8.253-10.48 8.437-9.785.299-.347-.346-.3-1.88-1.633-.367-.319-.297.385-8.005 10.326-8.65 9.935zm12.788 1.821h0l.008.005c.833.441 1.761.658 2.774.658 1.012 0 1.94-.217 2.773-.658h0l.003-.002c.842-.456 1.517-1.06 2.014-1.813a4.54 4.54 0 00.754-2.55 4.54 4.54 0 00-.752-2.548 5.177 5.177 0 00-2.017-1.817c-.833-.462-1.762-.69-2.775-.69-1.015 0-1.944.228-2.778.69a5.478 5.478 0 00-2.011 1.811l-.002.003a4.54 4.54 0 00-.754 2.55c0 .934.251 1.788.754 2.55h0l.005.008a5.855 5.855 0 002.004 1.803zm3.973-2.877h0l-.007.009c-.329.404-.715.587-1.184.587-.446 0-.837-.18-1.192-.596a2.195 2.195 0 01-.537-1.484c0-.58.18-1.067.537-1.484h0l.006-.007c.357-.434.747-.618 1.186-.618.445 0 .836.18 1.191.595.356.415.537.911.537 1.514 0 .58-.18 1.067-.537 1.484zM23.742 23.55c-.354.412-.744.591-1.189.591-.445 0-.836-.18-1.191-.595-.356-.415-.537-.911-.537-1.514 0-.58.18-1.067.537-1.485.355-.414.746-.595 1.191-.595.446 0 .837.18 1.192.595.358.418.537.905.537 1.485 0 .578-.179 1.078-.54 1.518z" stroke="#F64F00" stroke-width=".92"/></g></symbol><symbol id="icon-search" viewBox="0 0 26 26"><path fill-rule="evenodd" clip-rule="evenodd" d="M11.917 20.583a8.667 8.667 0 100-17.333 8.667 8.667 0 000 17.333z"/><path d="M22.752 22.75l-4.713-4.712"/></symbol><symbol id="icon-telegram"><circle cx="20" cy="20" r="19.5"/><path d="M10.797 19.677l-.008-.003-.009-.003c-.005-.002-.006-.002-.009-.007a.11.11 0 01-.013-.056.11.11 0 01.013-.056c.003-.005.004-.006.01-.008l.01-.004.012-.004 17.893-7.141-2.054 2.005-9.944 6.207c-.65.297-.872 1.076-.554 1.701l.943 3.567a.787.787 0 00.303.457c.155.111.334.15.498.134.298-.028.643-.263.662-.677l.237-1.957.004-.03v-.03c0-.21.122-.417.334-.637l8.146-7.952c.024-.017.043-.033.053-.042l.003-.002a18.939 18.939 0 00.447-.405 69.78 69.78 0 001.725-1.685c.107-.109.198-.204.259-.27a1.31 1.31 0 00.09-.11.58.58 0 00.069-.128.506.506 0 00-.16-.57l.467-.186a.125.125 0 01.042.057c.005.017.005.03.004.041v.001l-3.517 17.314v.005a.05.05 0 01-.011.025.048.048 0 01-.02.012.052.052 0 01-.052-.008l-.005-.004-4.714-3.544c-.462-.356-1.143-.422-1.601.03l-2.61 2.203a.165.165 0 01-.08.03l-.002-.006-.007-.025-1.839-6.102-.07-.235-.229-.088-4.716-1.814z"/></symbol><symbol id="icon-vk" viewBox="0 0 40 40"><circle cx="20" cy="20" r="19.5"/><path fill-rule="evenodd" clip-rule="evenodd" d="M30.04 14.258c.16-.522 0-.901-.708-.901h-2.35c-.592 0-.866.332-1.026.688 0 0-1.209 3.036-2.897 5.006-.547.57-.798.759-1.095.759-.16 0-.365-.19-.365-.712v-4.863c0-.617-.182-.902-.684-.902H17.22a.577.577 0 00-.593.57c0 .592.844.735.935 2.396v3.606c0 .783-.137.925-.434.925-.798 0-2.737-3.06-3.9-6.548-.228-.688-.456-.949-1.05-.949H9.806c-.684 0-.798.332-.798.688 0 .64.798 3.867 3.718 8.138 1.939 2.918 4.699 4.484 7.185 4.484 1.506 0 1.688-.356 1.688-.95v-2.206c0-.711.137-.83.616-.83.343 0 .958.19 2.35 1.59 1.597 1.66 1.87 2.42 2.76 2.42h2.35c.684 0 1.003-.357.82-1.045-.205-.688-.98-1.684-1.984-2.87-.547-.665-1.369-1.4-1.62-1.756-.342-.474-.25-.664 0-1.091-.022 0 2.852-4.223 3.148-5.647z"/></symbol><symbol id="icon-zaryad" viewBox="0 0 1098 119"><g fill="none"><path d="M569.689 1h99.834l-20.922 44.316c-8.921 16.867-35.532 29.441-70.143 29.441H504.93l-20.46 43.09h-56.3l34.611-72.991h129.83l6.305-13.188H469.241C477.548 14.188 504.621 1 540 1h29.689zm313.495 0H753.509c-35.38 0-62.452 13.188-70.759 30.668h129.675l-6.308 13.188H676.445l-14.153 29.901h56.147l-94.143 43.09h95.833l65.685-30.209-14.305 30.209c34.608 0 61.222-12.574 70.143-29.442l20.612-43.549 6.308-13.188 3.537-7.667L883.184 1zM142.673 1h99.678l-23.843 50.603-31.38 6.593 24.15 8.28-10.152 21.469C192.512 105.119 165.592 118 130.674 118H1l20.459-43.089 49.993 13.187h73.528l6.307-13.187H77.759L29.304 58.196 91.756 45.01h73.529l6.306-13.187H98.063L35.764 45.009c.462-1.073 2-4.293 6.307-13.187C50.378 14.34 77.451 1.154 112.83 1.154L142.673 1zm712.822 116.847l34.611-72.991h56.299l-20.303 43.089h73.528l26.61-56.277H896.569C907.644 10.508 938.101 1 967.325 1H1097l-41.23 86.945h27.54c-8.62 17.021-35.53 29.902-70.45 29.902H855.495zm-640.986 0l34.61-72.838h129.828l6.308-13.187H255.426c8.306-17.481 35.379-30.668 70.758-30.668h129.675l-34.611 72.99s2-4.14-6.304 13.188c-8.307 17.48-35.38 30.515-70.608 30.668l20.458-43.089h-73.527L270.808 118h-56.299v-.153z" stroke="#333"/></g></symbol></svg>